<?xml version="1.0" encoding="iso-8859-1"?>
<!-- Uploaded to: SVG Repo, www.svgrepo.com, Generator: SVG Repo Mixer Tools -->
<svg fill="#000000" height="800px" width="800px" version="1.1" id="Layer_1" xmlns="http://www.w3.org/2000/svg" xmlns:xlink="http://www.w3.org/1999/xlink" 
	 viewBox="0 0 511.999 511.999" xml:space="preserve">
<g>
	<g>
		<path d="M409.671,119.459l-107.54-13.562L256,7.811l-46.13,98.086l-107.54,13.562l79.031,74.183L161.026,300.11L256,247.871
			l94.973,52.238L330.64,193.642L409.671,119.459z M256.001,209.895l-49.015,26.96l10.494-54.948l-40.789-38.286l55.502-7
			L256,85.998l23.808,50.622l55.502,7l-40.787,38.286l10.494,54.948L256.001,209.895z"/>
	</g>
</g>
<g>
	<g>
		<path d="M442.875,354.882l-9.065-76.098l-52.833,55.515l-75.175-14.894l36.471,67.402L304.878,453.7l75.373-13.859l52.064,56.237
			l10.11-75.967l69.574-32.138L442.875,354.882z M411.857,397.578l-3.191,23.974l-16.43-17.747l-23.787,4.374l11.802-21.11
			l-11.51-21.271l23.724,4.701l16.673-17.52l2.861,24.015l21.814,10.444L411.857,397.578z"/>
	</g>
</g>
<g>
	<g>
		<path d="M169.726,386.805l36.471-67.401l-75.175,14.894l-52.833-55.516l-9.065,76.099L0,387.973l69.573,32.138l10.111,75.966
			l52.063-56.237l75.374,13.859L169.726,386.805z M119.765,403.804l-16.43,17.747l-3.191-23.974l-21.956-10.142l21.816-10.444
			l2.861-24.015l16.672,17.52l23.724-4.701l-11.51,21.271l11.802,21.11L119.765,403.804z"/>
	</g>
</g>
<g>
	<g>
		<polygon points="272.638,445.723 272.638,420.536 239.362,420.536 239.362,445.723 214.174,445.723 214.174,478.999 
			239.362,478.999 239.362,504.187 272.638,504.187 272.638,478.999 297.826,478.999 297.826,445.723 		"/>
	</g>
</g>
<g>
	<g>
		<polygon points="75.988,80.122 75.988,54.933 42.713,54.933 42.713,80.122 17.524,80.122 17.524,113.398 42.713,113.398 
			42.713,138.586 75.988,138.586 75.988,113.398 101.176,113.398 101.176,80.122 		"/>
	</g>
</g>
<g>
	<g>
		<polygon points="469.287,185.371 469.287,160.182 436.012,160.182 436.012,185.371 410.823,185.371 410.823,218.646 
			436.012,218.646 436.012,243.835 469.287,243.835 469.287,218.646 494.476,218.646 494.476,185.371 		"/>
	</g>
</g>
</svg>